<?xml version="1.0" standalone="no"?>
<!DOCTYPE svg PUBLIC "-//W3C//DTD SVG 20010904//EN"
 "http://www.w3.org/TR/2001/REC-SVG-20010904/DTD/svg10.dtd">
<svg version="1.0" xmlns="http://www.w3.org/2000/svg"
 width="700.000000pt" height="700.000000pt" viewBox="0 0 700.000000 700.000000"
 preserveAspectRatio="xMidYMid meet">
<metadata>
Created by potrace 1.11, written by Peter Selinger 2001-2013
</metadata>
<g transform="translate(0.000000,700.000000) scale(0.100000,-0.100000)"
fill="#000000" stroke="none">
<path d="M3377 6954 c-1 -1 -52 -4 -113 -8 -60 -4 -119 -8 -130 -10 -10 -2
-50 -7 -89 -12 -38 -4 -72 -8 -75 -9 -3 0 -27 -4 -55 -9 -107 -16 -375 -84
-495 -124 -941 -319 -1687 -998 -2084 -1896 -86 -194 -180 -478 -210 -636 -37
-194 -45 -244 -52 -295 -3 -33 -8 -71 -10 -85 -22 -158 -22 -612 1 -751 2 -13
6 -49 9 -79 12 -107 49 -295 82 -420 15 -52 27 -102 29 -110 2 -8 17 -57 34
-108 159 -471 405 -891 726 -1241 388 -424 890 -750 1435 -934 152 -51 444
-124 525 -132 11 -1 34 -5 50 -8 97 -21 364 -41 550 -41 125 0 345 11 367 18
7 3 36 7 63 10 87 10 118 15 195 31 41 8 84 17 95 19 121 24 346 93 500 153
355 138 718 355 1010 605 78 67 326 316 391 393 377 447 654 1010 760 1540 10
52 25 139 29 168 2 18 9 64 15 104 31 224 31 595 -1 833 -14 103 -46 283 -60
333 -6 23 -13 53 -16 67 -10 60 -80 276 -130 405 -138 355 -334 685 -593 996
-80 96 -362 372 -461 451 -107 85 -261 197 -336 243 -283 174 -505 280 -773
368 -91 31 -202 62 -250 72 -8 2 -42 10 -75 18 -33 9 -78 18 -99 21 -21 4 -48
8 -60 11 -37 8 -80 15 -141 21 -33 3 -62 7 -65 9 -15 9 -483 27 -493 19z m403
-448 c51 -7 95 -13 160 -21 40 -5 104 -16 180 -31 193 -38 462 -131 669 -230
348 -168 719 -454 956 -739 28 -33 58 -68 67 -79 34 -38 176 -243 225 -326
287 -480 434 -1010 436 -1565 1 -104 -10 -314 -18 -355 -2 -13 -7 -48 -10 -79
-6 -63 -47 -268 -71 -351 -8 -30 -16 -59 -18 -65 -54 -210 -191 -520 -326
-740 -41 -66 -77 -124 -82 -130 -4 -5 -37 -50 -74 -100 -380 -510 -895 -880
-1496 -1075 -105 -35 -287 -80 -378 -94 -19 -3 -45 -8 -58 -10 -129 -27 -505
-40 -687 -24 -92 8 -232 26 -255 32 -8 3 -33 7 -55 11 -22 3 -47 7 -55 10 -15
4 -37 9 -95 21 -16 3 -75 19 -130 36 -480 142 -899 391 -1250 743 -66 67 -129
132 -140 145 -11 14 -40 50 -65 80 -25 30 -48 59 -52 65 -4 5 -18 24 -31 40
-289 374 -521 946 -573 1410 -3 28 -7 55 -9 61 -7 23 -19 251 -18 359 0 135
14 340 28 415 3 14 8 45 11 70 3 25 8 54 11 65 2 11 6 33 8 48 7 47 64 255
100 364 56 167 156 390 251 553 32 57 187 289 211 317 19 23 24 28 92 113 65
80 314 326 401 396 264 212 476 335 835 485 90 37 384 120 473 134 21 3 49 8
62 10 14 3 39 7 55 10 17 2 48 7 70 10 22 3 74 8 115 11 41 3 76 6 77 8 6 5
409 -2 453 -8z"/>
<path d="M2277 5901 c-2 -3 -3 -91 -3 -196 l1 -190 80 -2 c345 -8 466 -38 570
-138 103 -101 122 -303 44 -458 -26 -50 -103 -127 -162 -161 -41 -25 -54 -46
-27 -46 18 0 115 -68 152 -107 62 -64 82 -122 81 -233 -2 -269 -177 -428 -470
-428 -260 0 -427 156 -438 409 -6 129 23 232 91 329 l32 45 -538 0 c-296 0
-542 -3 -546 -7 -5 -6 -10 -958 -5 -1071 1 -16 11 -18 98 -16 224 4 362 72
445 221 l21 38 30 -53 c39 -69 101 -132 155 -158 94 -44 155 -48 707 -48 459
-1 559 3 661 23 60 12 184 101 184 132 0 8 4 14 9 14 5 0 18 21 29 48 l21 47
25 -56 c48 -109 134 -175 256 -198 34 -6 283 -9 655 -8 551 2 605 4 655 21
118 39 180 94 230 205 l16 34 33 -52 c48 -74 105 -127 175 -161 73 -35 93 -39
219 -47 l97 -5 1 33 c1 44 1 994 0 1034 l-1 30 -540 0 c-405 0 -540 -3 -540
-12 0 -6 4 -13 9 -15 16 -6 60 -87 81 -149 26 -77 33 -214 15 -291 -47 -204
-215 -323 -447 -317 -285 7 -463 185 -453 451 3 81 14 128 47 196 27 54 82
119 109 127 18 6 14 11 -30 36 -145 83 -226 233 -214 401 12 192 131 305 358
343 72 12 98 14 241 16 l141 2 -1 196 -1 196 -400 0 c-474 -1 -506 -4 -601
-50 -61 -30 -113 -84 -150 -156 l-26 -52 -34 62 c-54 98 -116 145 -231 177
-49 14 -127 17 -486 19 -235 1 -429 -1 -430 -4z"/>
<path d="M1139 3349 c-4 -136 1 -1062 6 -1067 7 -7 1075 -10 1075 -4 0 2 -8
16 -19 30 -139 197 -129 484 21 632 86 85 192 121 337 116 115 -4 148 -10 218
-41 148 -66 229 -191 238 -370 9 -181 -81 -317 -243 -366 -7 -3 16 -23 51 -46
116 -74 186 -192 192 -324 10 -229 -97 -353 -350 -404 -37 -8 -159 -15 -290
-18 l-99 -2 -1 -192 c-1 -166 1 -194 15 -197 24 -7 872 1 905 8 80 18 113 30
150 53 54 35 99 85 125 139 23 46 40 64 40 42 0 -7 18 -41 41 -76 58 -89 136
-138 249 -157 55 -9 919 -15 921 -6 4 17 5 368 1 378 -2 7 -48 12 -145 12
-291 3 -457 58 -537 179 -38 58 -52 108 -55 197 -3 114 26 206 92 284 30 37
116 103 148 115 17 6 13 12 -35 39 -80 47 -146 112 -177 176 -24 49 -28 67
-27 146 1 104 20 177 65 247 77 120 217 185 400 186 263 1 432 -152 444 -403
3 -58 -1 -96 -15 -138 -17 -56 -87 -173 -116 -198 -8 -7 -19 -20 -24 -28 -7
-15 41 -16 533 -16 l542 0 3 549 2 549 -102 -6 c-57 -3 -121 -11 -143 -18
-101 -29 -185 -91 -242 -178 l-38 -59 -32 57 c-38 69 -89 121 -148 150 -91 45
-155 50 -710 50 -446 0 -556 -4 -655 -22 -9 -1 -41 -15 -73 -30 -63 -31 -115
-86 -151 -160 l-25 -49 -22 44 c-51 101 -124 163 -231 196 -46 14 -131 16
-618 18 -616 2 -670 -2 -778 -53 -67 -32 -132 -94 -165 -158 l-24 -48 -30 49
c-60 97 -147 164 -247 192 -28 7 -95 16 -148 19 -98 5 -98 5 -99 -18z"/>
</g>
</svg>
